<svg xmlns="http://www.w3.org/2000/svg" height="24" width="24"><path d="M12.075 22q-2.1 0-3.937-.8-1.838-.8-3.2-2.162-1.363-1.363-2.163-3.2-.8-1.838-.8-3.938 0-3.65 2.325-6.438Q6.625 2.675 10.225 2q-.45 2.475.275 4.837.725 2.363 2.5 4.138t4.137 2.5q2.363.725 4.838.275-.65 3.6-3.45 5.925Q15.725 22 12.075 22Zm0-2q2.2 0 4.075-1.1t2.95-3.025q-2.15-.2-4.075-1.088-1.925-.887-3.45-2.412-1.525-1.525-2.425-3.45Q8.25 7 8.075 4.85 6.15 5.925 5.062 7.812 3.975 9.7 3.975 11.9q0 3.375 2.363 5.737Q8.7 20 12.075 20Zm-.5-7.625ZM18 10l-1.25-2.75L14 6l2.75-1.25L18 2l1.25 2.75L22 6l-2.75 1.25Z"/></svg>